<svg xmlns="http://www.w3.org/2000/svg" viewBox="0 0 48 48" width="48" height="48" role="img" aria-label="DeepSeek theme studio">
  <title>DeepSeek 官网主题工作台</title>
  <defs>
    <linearGradient id="dts-fluid" x1="0" y1="0" x2="1" y2="1">
      <stop offset="0" stop-color="#1a3870"/>
      <stop offset="0.55" stop-color="#204a7e"/>
      <stop offset="1" stop-color="#eed8aa"/>
    </linearGradient>
  </defs>
  <rect width="48" height="48" rx="12" fill="url(#dts-fluid)"/>
  <g fill="#ffffff" fill-opacity="0.85">
    <circle cx="9" cy="9" r="1.1"/><circle cx="15" cy="9" r="1.1"/><circle cx="21" cy="9" r="1.1"/>
    <circle cx="27" cy="9" r="1.1"/><circle cx="33" cy="9" r="1.1"/><circle cx="39" cy="9" r="1.1"/>
    <circle cx="9" cy="15" r="1.1"/><circle cx="39" cy="15" r="1.1"/>
    <circle cx="9" cy="21" r="1.1"/><circle cx="39" cy="21" r="1.1"/>
    <circle cx="9" cy="27" r="1.1"/><circle cx="39" cy="27" r="1.1"/>
    <circle cx="9" cy="33" r="1.1"/><circle cx="39" cy="33" r="1.1"/>
    <circle cx="9" cy="39" r="1.1"/><circle cx="15" cy="39" r="1.1"/><circle cx="21" cy="39" r="1.1"/>
    <circle cx="27" cy="39" r="1.1"/><circle cx="33" cy="39" r="1.1"/><circle cx="39" cy="39" r="1.1"/>
  </g>
  <path fill="#ffffff" d="M35.9 15.4c-.3-.15-.45.13-.62.27-.06.05-.11.11-.16.16-.44.47-.95.77-1.62.74-1 0-1.85.31-2.6 1.08-.16-.94-.7-1.5-1.5-1.86-.42-.19-.85-.37-1.15-.78-.2-.29-.26-.61-.36-.93-.07-.19-.13-.39-.35-.42-.24-.04-.33.16-.42.33-.38.69-.52 1.45-.51 2.22.03 1.73.76 3.11 2.21 4.09.17.11.21.22.16.39-.1.34-.22.67-.32 1.01-.07.21-.16.26-.39.17-.8-.33-1.49-.82-2.1-1.42-1.03-1-1.96-2.1-3.13-2.96-.27-.2-.55-.39-.83-.57-1.19-1.15.13-2.1.44-2.21.32-.12.11-.52-.94-.52-1.05 0-2.01.35-3.24.82-.18.07-.37.12-.56.16-1.11-.21-2.27-.26-3.48-.12-2.27.25-4.09 1.33-5.42 3.16-1.6 2.2-1.98 4.71-1.52 7.32.49 2.75 1.89 5.03 4.05 6.81 2.24 1.85 4.82 2.75 7.76 2.58 1.79-.1 3.78-.34 6.02-2.24.57.28 1.16.4 2.15.48.76.07 1.49-.04 2.06-.16.89-.19.83-1.01.51-1.16-2.6-1.21-2.03-.79-2.55-1.19 1.32-1.56 3.34-4.34 3.96-8.12.06-.42.14-1 .13-1.34 0-.21.04-.29.28-.31.65-.07 1.28-.25 1.86-.57 1.68-.92 2.36-2.43 2.52-4.24.02-.28 0-.57-.3-.71Zm-16.03 15.1c-2.52-1.98-3.74-2.63-4.25-2.6-.47.03-.38.57-.28.92.11.35.25.59.45.9.14.2.23.5-.12.79-.86.71-2.4-.18-2.47-.22-1.82-1.07-3.31-2.72-3.9-4.99-.06-.24-.15-.75-.17-.98-.04-.99.4-1.59 1.39-1.86.62-.17 1.5-.11 2.24.25 1.06.51 1.87 1.42 2.9 2.55.83.91 1.85 1.47 3.18 1.53.42.02.85-.03 1.28-.1.1.42.26.83.48 1.21.75 1.28 1.94 2.09 3.28 2.52-.63.09-1.25.2-1.87.22-1.77.06-3.39-.63-4.58-1.71l-.16-.13Zm3.46-3.16c-.21-.28-.14-.53.05-.73.24-.25.55-.45.9-.45.4 0 .79.06 1.15.25.72.38 1.28.94 1.5 1.74.07.25.02.5-.19.62-.34.19-.72.3-1.12.28-1.13-.05-2.05-.63-2.29-1.71Z" transform="translate(2 4) scale(0.72)"/>
</svg>
